<svg xmlns="http://www.w3.org/2000/svg" xmlns:xlink="http://www.w3.org/1999/xlink" width="500" zoomAndPan="magnify" viewBox="0 0 375 374.999991" height="500" preserveAspectRatio="xMidYMid meet" version="1.0"><defs><clipPath id="dc2d464621"><path d="M 38 3 L 352 3 L 352 375 L 38 375 Z M 38 3 " clip-rule="nonzero"/></clipPath><clipPath id="bf36596959"><path d="M -45.367188 67.136719 L 191.453125 -67.15625 L 420.457031 336.683594 L 183.632812 470.976562 Z M -45.367188 67.136719 " clip-rule="nonzero"/></clipPath><clipPath id="b975a2fd2a"><path d="M 191.453125 -67.15625 L -45.367188 67.136719 L 183.632812 470.976562 L 420.457031 336.683594 Z M 191.453125 -67.15625 " clip-rule="nonzero"/></clipPath><clipPath id="40b5eb33ab"><path d="M 56.425781 238.707031 C 39.910156 202.046875 36.082031 160.636719 40.019531 120.601562 C 43.957031 80.566406 55.402344 41.703125 68.277344 3.625 C 70 30.976562 89.769531 54.542969 113.414062 68.398438 C 137.054688 82.253906 164.339844 88.171875 191.03125 94.382812 C 217.703125 100.558594 244.917969 107.539062 267.507812 123.0625 C 292.265625 140.0625 340.734375 196.671875 311.019531 270.222656 C 287.308594 238.441406 278.375 228.257812 254.992188 211.496094 C 231.613281 194.734375 204.207031 184.75 178.390625 172.082031 C 152.574219 159.417969 127.109375 142.902344 113.035156 117.84375 C 122.496094 138.136719 139.886719 153.671875 158.550781 166.035156 C 177.210938 178.398438 197.492188 188.203125 216.085938 200.605469 C 249.757812 223.046875 286.925781 260.984375 351.769531 375.417969 C 343.664062 362.136719 331.050781 351.1875 316.914062 343.90625 C 314.832031 342.820312 312.71875 341.839844 310.589844 340.910156 C 309.015625 340.25 307.40625 339.605469 305.8125 338.996094 C 280.707031 329.617188 253.070312 328.878906 226.164062 328.792969 C 197.535156 328.660156 168.242188 328.996094 141.148438 319.722656 C 103.152344 306.757812 72.980469 275.347656 56.425781 238.707031 Z M 56.425781 238.707031 " clip-rule="nonzero"/></clipPath><linearGradient x1="2460.78" gradientTransform="matrix(0.33651, -0.19082, 0.19082, 0.33651, -760.703467, 472.773215)" y1="-38.953823" x2="2460.78" gradientUnits="userSpaceOnUse" y2="1198.662773" id="7cb7500155"><stop stop-opacity="1" stop-color="rgb(54.432678%, 76.126099%, 25.619507%)" offset="0"/><stop stop-opacity="1" stop-color="rgb(54.377747%, 76.081848%, 25.585938%)" offset="0.5"/><stop stop-opacity="1" stop-color="rgb(54.269409%, 75.996399%, 25.521851%)" offset="1"/></linearGradient><clipPath id="fc340d4bab"><path d="M 33 0 L 358 0 L 358 375 L 33 375 Z M 33 0 " clip-rule="nonzero"/></clipPath><clipPath id="81493beeea"><path d="M -45.367188 67.136719 L 191.453125 -67.15625 L 420.457031 336.683594 L 183.632812 470.976562 Z M -45.367188 67.136719 " clip-rule="nonzero"/></clipPath><clipPath id="a6f832f184"><path d="M 191.453125 -67.15625 L -45.367188 67.136719 L 183.632812 470.976562 L 420.457031 336.683594 Z M 191.453125 -67.15625 " clip-rule="nonzero"/></clipPath></defs><g clip-path="url(#dc2d464621)"><g clip-path="url(#bf36596959)"><g clip-path="url(#b975a2fd2a)"><g clip-path="url(#40b5eb33ab)"><path fill="url(#7cb7500155)" d="M -123.269531 93.988281 L 112.894531 510.457031 L 511.121094 284.640625 L 274.960938 -131.832031 Z M -123.269531 93.988281 " fill-rule="nonzero"/></g></g></g></g><g clip-path="url(#fc340d4bab)"><g clip-path="url(#81493beeea)"><g clip-path="url(#a6f832f184)"><path stroke-linecap="butt" transform="matrix(-0.33651, 0.19082, 0.19082, 0.33651, 177.478558, -59.230302)" fill="none" stroke-linejoin="miter" d="M 652.102916 515.595303 C 642.494969 412.101189 598.300834 314.103949 538.397972 229.100533 C 478.495109 144.097117 403.204237 71.302035 325.699686 2.095473 C 356.702097 65.795493 342.297361 143.99571 306.796764 205.300671 C 271.30495 266.600651 217.496826 314.699302 165.397388 362.69964 C 113.297042 410.59602 61.00182 460.994182 29.999651 524.704948 C -3.994704 594.500333 -40.800131 783.59628 119.802189 911.095098 C 132.594916 809.397069 139.698118 775.106726 170.904444 707.600411 C 202.101986 640.099077 250.997323 582.702188 292.895841 521.298111 C 334.799339 459.902817 371.00117 390.295074 370.696583 316.001586 C 375.298062 373.696559 356.001939 430.804144 329.797866 482.403127 C 303.602578 533.99713 270.499587 581.90487 244.50343 633.502035 C 197.403021 726.899448 162.200296 859.59967 162.305361 1199.600499 C 163.596592 1159.400626 177.997789 1118.696703 200.501661 1084.298135 C 203.798691 1079.201465 207.300475 1074.302108 210.902145 1069.497016 C 213.600209 1066.005282 216.39725 1062.503855 219.203984 1059.101405 C 263.697757 1005.999719 324.901043 969.099974 385.293581 934.598528 C 449.49996 897.795117 515.797272 861.199002 564.896431 805.799215 C 633.803975 728.197237 661.598122 619.095307 652.102916 515.595303 Z M 652.102916 515.595303 " stroke="#ffffff" stroke-width="1" stroke-opacity="1" stroke-miterlimit="10"/></g></g></g></svg>