<svg xmlns="http://www.w3.org/2000/svg" xmlns:xlink="http://www.w3.org/1999/xlink" width="500" zoomAndPan="magnify" viewBox="0 0 375 374.999991" height="500" preserveAspectRatio="xMidYMid meet" version="1.0"><defs><clipPath id="f0a352fb78"><path d="M 237 53 L 365 53 L 365 302 L 237 302 Z M 237 53 " clip-rule="nonzero"/></clipPath><clipPath id="3c83068221"><path d="M -114.492188 123.773438 L 146.792969 -112.84375 L 423.683594 192.914062 L 162.398438 429.53125 Z M -114.492188 123.773438 " clip-rule="nonzero"/></clipPath><clipPath id="5f0c3d2b4e"><path d="M -114.492188 123.773438 L 146.792969 -112.84375 L 423.683594 192.914062 L 162.398438 429.53125 Z M -114.492188 123.773438 " clip-rule="nonzero"/></clipPath><clipPath id="f84667c6c4"><path d="M 37 245 L 285 245 L 285 371 L 37 371 Z M 37 245 " clip-rule="nonzero"/></clipPath><clipPath id="18ce4e75c3"><path d="M -114.492188 123.773438 L 146.792969 -112.84375 L 423.683594 192.914062 L 162.398438 429.53125 Z M -114.492188 123.773438 " clip-rule="nonzero"/></clipPath><clipPath id="f55f9f6bb8"><path d="M -114.492188 123.773438 L 146.792969 -112.84375 L 423.683594 192.914062 L 162.398438 429.53125 Z M -114.492188 123.773438 " clip-rule="nonzero"/></clipPath><clipPath id="6692bcce3d"><path d="M 37.453125 274.65625 C 52.203125 279.355469 67.910156 281.921875 83.230469 279.722656 C 100.148438 277.253906 115.648438 269.121094 130.945312 261.4375 C 146.238281 253.75 162.1875 246.257812 179.242188 245.242188 C 216.472656 243.050781 236.863281 266.386719 249.859375 281.898438 C 233.421875 279.820312 216.691406 282.6875 200.101562 287.300781 C 183.511719 291.917969 167.675781 298.957031 151.089844 303.527344 C 134.484375 308.074219 116.488281 310.027344 100.253906 304.3125 C 112.839844 312.371094 128.921875 312.890625 143.609375 310.085938 C 158.292969 307.28125 172.1875 301.476562 186.625 297.625 C 218.574219 289.113281 253.082031 290.523438 284.21875 301.589844 C 267.222656 334.382812 235.320312 359.074219 199.324219 367.363281 C 163.300781 375.671875 123.835938 367.386719 94.179688 345.359375 C 69.773438 327.191406 52.644531 301.035156 37.453125 274.65625 Z M 37.453125 274.65625 " clip-rule="nonzero"/></clipPath><clipPath id="585ef2440e"><path d="M 19 153 L 234 153 L 234 257 L 19 257 Z M 19 153 " clip-rule="nonzero"/></clipPath><clipPath id="4303ff98ff"><path d="M -114.492188 123.773438 L 146.792969 -112.84375 L 423.683594 192.914062 L 162.398438 429.53125 Z M -114.492188 123.773438 " clip-rule="nonzero"/></clipPath><clipPath id="fd4bd8603f"><path d="M -114.492188 123.773438 L 146.792969 -112.84375 L 423.683594 192.914062 L 162.398438 429.53125 Z M -114.492188 123.773438 " clip-rule="nonzero"/></clipPath><clipPath id="1581f03f6c"><path d="M 19.933594 167.53125 C 21.441406 172.765625 26.308594 176.839844 31.648438 178.390625 C 37.753906 180.160156 44.296875 179.175781 50.457031 177.578125 C 76.90625 170.71875 100.9375 152.5 128.234375 153.578125 C 146.097656 154.277344 162.847656 163.507812 175.625 176.023438 C 188.40625 188.542969 197.660156 204.167969 205.890625 220.015625 C 192.402344 203.242188 171.472656 192.683594 149.949219 191.800781 C 134.835938 191.1875 116.328125 197.980469 101.414062 200.339844 C 86.496094 202.699219 77.148438 204.253906 60.613281 193.957031 C 68.761719 205.46875 83.984375 209.871094 98.09375 209.902344 C 112.203125 209.9375 126.09375 206.496094 140.210938 205.910156 C 162.699219 204.960938 185.429688 211.570312 203.90625 224.394531 C 215.949219 232.769531 226.167969 243.757812 233.734375 256.316406 C 213.121094 237.5625 183.894531 228.21875 156.28125 232.585938 C 137.433594 235.578125 119.582031 244.398438 100.492188 244.804688 C 79.867188 245.253906 59.707031 235.398438 45.582031 220.378906 C 32.003906 205.917969 23.691406 187.035156 19.933594 167.53125 Z M 19.933594 167.53125 " clip-rule="nonzero"/></clipPath><clipPath id="8bd3f56bee"><path d="M 148 28 L 243 28 L 243 250 L 148 250 Z M 148 28 " clip-rule="nonzero"/></clipPath><clipPath id="3200ef302a"><path d="M -114.492188 123.773438 L 146.792969 -112.84375 L 423.683594 192.914062 L 162.398438 429.53125 Z M -114.492188 123.773438 " clip-rule="nonzero"/></clipPath><clipPath id="e1c7183519"><path d="M -114.492188 123.773438 L 146.792969 -112.84375 L 423.683594 192.914062 L 162.398438 429.53125 Z M -114.492188 123.773438 " clip-rule="nonzero"/></clipPath><clipPath id="a528002ae7"><path d="M 14 6 L 138 6 L 138 141 L 14 141 Z M 14 6 " clip-rule="nonzero"/></clipPath><clipPath id="57a5006be1"><path d="M -114.492188 123.773438 L 146.792969 -112.84375 L 423.683594 192.914062 L 162.398438 429.53125 Z M -114.492188 123.773438 " clip-rule="nonzero"/></clipPath><clipPath id="88660b2583"><path d="M -114.492188 123.773438 L 146.792969 -112.84375 L 423.683594 192.914062 L 162.398438 429.53125 Z M -114.492188 123.773438 " clip-rule="nonzero"/></clipPath></defs><g clip-path="url(#f0a352fb78)"><g clip-path="url(#3c83068221)"><g clip-path="url(#5f0c3d2b4e)"><path fill="#87bf3f" d="M 281.8125 53.371094 C 285.03125 68.511719 286.03125 84.394531 282.328125 99.421875 C 278.203125 116.011719 268.574219 130.632812 259.414062 145.09375 C 250.253906 159.554688 241.222656 174.683594 238.527344 191.554688 C 232.664062 228.386719 253.871094 250.984375 268.023438 265.449219 C 267.582031 248.886719 272.085938 232.519531 278.320312 216.46875 C 284.550781 200.417969 293.121094 185.355469 299.308594 169.304688 C 305.476562 153.226562 309.199219 135.515625 305.117188 118.792969 C 311.890625 132.113281 310.820312 148.167969 306.574219 162.503906 C 302.332031 176.839844 295.183594 190.09375 289.921875 204.082031 C 278.292969 235.03125 276.289062 269.507812 284.21875 301.589844 C 318.535156 287.914062 346.257812 258.613281 358.0625 223.609375 C 369.871094 188.609375 365.546875 148.492188 346.535156 116.828125 C 330.898438 90.722656 306.539062 71.113281 281.8125 53.371094 Z M 281.8125 53.371094 " fill-opacity="1" fill-rule="nonzero"/></g></g></g><g clip-path="url(#f84667c6c4)"><g clip-path="url(#18ce4e75c3)"><g clip-path="url(#f55f9f6bb8)"><g clip-path="url(#6692bcce3d)"><path fill="#87bf3f" d="M 173.035156 120.273438 L 349.871094 315.546875 L 148.640625 497.777344 L -28.195312 302.503906 Z M 173.035156 120.273438 " fill-opacity="1" fill-rule="nonzero"/></g></g></g></g><g clip-path="url(#585ef2440e)"><g clip-path="url(#4303ff98ff)"><g clip-path="url(#fd4bd8603f)"><g clip-path="url(#1581f03f6c)"><path fill="#87bf3f" d="M 137.402344 46.121094 L 285.390625 209.539062 L 116.265625 362.695312 L -31.722656 199.277344 Z M 137.402344 46.121094 " fill-opacity="1" fill-rule="nonzero"/></g></g></g></g><g clip-path="url(#8bd3f56bee)"><g clip-path="url(#3200ef302a)"><g clip-path="url(#e1c7183519)"><path fill="#87bf3f" d="M 172.332031 28.601562 C 177.394531 30.574219 181.035156 35.804688 182.074219 41.246094 C 183.257812 47.476562 181.699219 53.917969 179.546875 59.890625 C 170.261719 85.609375 149.910156 107.84375 148.46875 135.121094 C 148.164062 140.773438 148.734375 146.425781 150 151.925781 C 159.964844 155.929688 169.148438 162.304688 176.851562 169.84375 C 180.199219 173.109375 183.285156 176.609375 186.179688 180.242188 C 184.714844 173.699219 184.128906 166.96875 184.503906 160.289062 C 185.300781 145.183594 193.773438 127.410156 197.484375 112.769531 C 201.214844 98.109375 203.621094 88.9375 194.847656 71.523438 C 205.566406 80.703125 208.535156 96.246094 207.265625 110.296875 C 205.996094 124.34375 201.289062 137.878906 199.378906 151.847656 C 196.347656 174.136719 200.816406 197.417969 211.890625 216.988281 C 219.128906 229.757812 229.105469 240.921875 240.929688 249.628906 C 224.179688 227.371094 217.542969 197.398438 224.460938 170.320312 C 229.183594 151.832031 239.617188 134.867188 241.769531 115.90625 C 244.117188 95.417969 236.164062 74.417969 222.519531 58.96875 C 209.441406 44.183594 191.421875 34.136719 172.332031 28.601562 Z M 172.332031 28.601562 " fill-opacity="1" fill-rule="nonzero"/></g></g></g><g clip-path="url(#a528002ae7)"><g clip-path="url(#57a5006be1)"><g clip-path="url(#88660b2583)"><path fill="#87bf3f" d="M 14.753906 6.730469 C 30.972656 42.457031 20.910156 83.878906 55.492188 118.101562 C 71.347656 133.78125 102.457031 138.96875 121.257812 140.65625 L 51.015625 46.777344 L 137.496094 126.386719 C 137.671875 107.558594 135.667969 75.75 121.527344 58.300781 C 90.886719 20.507812 48.699219 26.402344 14.753906 6.730469 Z M 14.753906 6.730469 " fill-opacity="1" fill-rule="nonzero"/></g></g></g></svg>